<?xml version="1.0" encoding="utf-8"?>
<!-- Generator: Adobe Illustrator 21.0.2, SVG Export Plug-In . SVG Version: 6.00 Build 0)  -->
<svg version="1.1" id="Capa_1" xmlns="http://www.w3.org/2000/svg" xmlns:xlink="http://www.w3.org/1999/xlink" x="0px" y="0px"
	 viewBox="0 0 456 451" style="enable-background:new 0 0 456 451;" xml:space="preserve">
<style type="text/css">
	.st0{fill:#67ADA7;stroke:#67ADA7;stroke-width:6;stroke-miterlimit:10;}
	.st1{fill:#888888;stroke:#888888;stroke-width:6;stroke-miterlimit:10;}
</style>
<g>
	<path class="st0" d="M180.7,130.3h171c4,0,7.3-3.2,7.3-7.3c0-4-3.2-7.3-7.3-7.3h-171c-4,0-7.3,3.2-7.3,7.3S176.7,130.3,180.7,130.3
		z"/>
	<path class="st0" d="M180.7,239.1h171c4,0,7.3-3.2,7.3-7.3c0-4-3.2-7.3-7.3-7.3h-171c-4,0-7.3,3.2-7.3,7.3
		C173.5,235.9,176.7,239.1,180.7,239.1z"/>
	<path class="st0" d="M180.7,347.9h171c4,0,7.3-3.2,7.3-7.3s-3.2-7.3-7.3-7.3h-171c-4,0-7.3,3.2-7.3,7.3S176.7,347.9,180.7,347.9z"
		/>
	<path class="st1" d="M438.7,7H18.1c-4,0-7.3,3.2-7.3,7.3v420.7c0,4,3.2,7.3,7.3,7.3h420.7c4,0,7.3-3.2,7.3-7.3V14.3
		C446,10.2,442.8,7,438.7,7z M431.5,427.7H25.3V21.5h406.2V427.7z"/>
	<polygon class="st0" points="101.5,141 119.1,131.7 136.7,141 133.3,121.4 147.6,107.5 127.9,104.6 119.1,86.8 110.3,104.6 
		90.6,107.5 104.8,121.4 	"/>
	<polygon class="st0" points="101.5,250.4 119.1,241.1 136.7,250.4 133.3,230.8 147.6,216.9 127.9,214 119.1,196.2 110.3,214 
		90.6,216.9 104.8,230.8 	"/>
	<polygon class="st0" points="101.5,362.4 119.1,353.2 136.7,362.4 133.3,342.8 147.6,328.9 127.9,326 119.1,308.2 110.3,326 
		90.6,328.9 104.8,342.8 	"/>
</g>
</svg>
