<?xml version="1.0" encoding="utf-8"?>
<!-- Generator: Adobe Illustrator 21.0.2, SVG Export Plug-In . SVG Version: 6.00 Build 0)  -->
<svg version="1.1" id="Capa_1" xmlns="http://www.w3.org/2000/svg" xmlns:xlink="http://www.w3.org/1999/xlink" x="0px" y="0px"
	 viewBox="0 0 423.3 423.3" style="enable-background:new 0 0 423.3 423.3;" xml:space="preserve">
<style type="text/css">
	.st0{fill:none;}
	.st1{fill:#6BADA7;}
	.st2{fill:#888888;}
</style>
<g>
	<g>
		<path class="st0" d="M186.9,343.1l-39.4,11.4h146.7c6.6,0,12,5.4,12,12s-5.4,12-12,12H66.5c-0.6,0-1.3-0.1-1.9-0.2
			c-0.6,0.1-1.3,0.2-1.9,0.2c-3,0-5.9-1.1-8.2-3.2c-3.1-2.9-4.4-7.2-3.6-11.3l27.9-130.6c0.5-2.3,1.6-4.3,3.3-6L228.3,81.3H26.4v318
			h318V187.7L192.1,340C190.7,341.5,188.9,342.5,186.9,343.1z"/>
		<polygon class="st0" points="163.3,324.9 97.9,259.5 78.7,349.4 		"/>
		<path class="st0" d="M327.1,24c-4.9,0-8.9,1.6-12.6,5c-0.1,0.1-0.3,0.3-0.4,0.4l-8.7,8.7l77.4,77.4l8.5-8.5c0,0,0.1-0.1,0.1-0.1
			l0.1-0.1c0.1-0.1,0.3-0.3,0.4-0.4C408,89,380.1,58.6,371.2,49.6C354.9,33.3,338.8,24,327.1,24z"/>
		<path class="st1" d="M107.9,235.6l77.4,77.4l180.5-180.5l-77.4-77.4L107.9,235.6z M309.4,111.5c4.7,4.7,4.7,12.3,0,17L182.6,255.2
			c-2.3,2.3-5.4,3.5-8.5,3.5c-3.1,0-6.1-1.2-8.5-3.5c-4.7-4.7-4.7-12.3,0-17l126.8-126.8C297.1,106.8,304.7,106.8,309.4,111.5z"/>
		<path class="st2" d="M165.6,255.2c2.3,2.3,5.4,3.5,8.5,3.5c3.1,0,6.1-1.2,8.5-3.5l126.8-126.8c4.7-4.7,4.7-12.3,0-17
			c-4.7-4.7-12.3-4.7-17,0L165.6,238.2C160.9,242.9,160.9,250.5,165.6,255.2z"/>
		<path class="st2" d="M417.8,76.5c-4.6-13.9-14.9-29-29.7-43.8C373.3,17.8,350.6,0,327.1,0c-10.5,0-20.2,3.7-28.1,10.7
			c-0.4,0.3-0.8,0.7-1.2,1l-45.5,45.5H14.4c-6.6,0-12,5.4-12,12v342c0,6.6,5.4,12,12,12h342c6.6,0,12-5.4,12-12V166.1
			c0-0.7-0.1-1.5-0.2-2.2l39.9-39.9c0.1-0.1,0.2-0.2,0.2-0.2c0,0,0,0,0,0l0.8-0.8c0.4-0.4,0.7-0.8,1-1.2
			C421,109.7,423.7,94,417.8,76.5z M163.3,324.9l-84.7,24.4l19.2-89.9L163.3,324.9z M185.3,312.9l-77.4-77.4L288.4,55.1l77.4,77.4
			L185.3,312.9z M344.4,399.3h-318v-318h201.8L82.2,227.4c-1.6,1.6-2.8,3.7-3.3,6L51,363.9c-0.9,4.1,0.5,8.4,3.6,11.3
			c2.3,2.1,5.2,3.2,8.2,3.2c0.6,0,231.5,0,231.5,0c6.6,0,12-5.4,12-12s-5.4-12-12-12H147.6l39.4-11.4c1.9-0.6,3.7-1.6,5.2-3
			l152.3-152.3V399.3z M391.8,106.4c-0.1,0.1-0.3,0.3-0.4,0.4l-0.1,0.1c0,0-0.1,0.1-0.1,0.1l-8.5,8.5l-77.4-77.4l8.7-8.7
			c0.1-0.1,0.3-0.3,0.4-0.4c3.7-3.4,7.7-5,12.6-5c11.7,0,27.8,9.3,44.1,25.6C380.1,58.6,408,89,391.8,106.4z"/>
	</g>
</g>
</svg>
