<?xml version="1.0" encoding="utf-8"?>
<!-- Generator: Adobe Illustrator 21.0.2, SVG Export Plug-In . SVG Version: 6.00 Build 0)  -->
<svg version="1.1" id="Capa_1" xmlns="http://www.w3.org/2000/svg" xmlns:xlink="http://www.w3.org/1999/xlink" x="0px" y="0px"
	 viewBox="0 0 414.8 414.8" style="enable-background:new 0 0 414.8 414.8;" xml:space="preserve">
<style type="text/css">
	.st0{fill:#6BADA7;}
	.st1{fill:#888888;}
</style>
<g>
	<rect x="182.5" y="244.6" class="st0" width="49.8" height="116.7"/>
	<polygon class="st0" points="302.1,91.8 336.5,115.4 336.5,57.9 302.1,57.9 	"/>
	<path class="st1" d="M409.6,165.4l-49.1-33.6V45.9c0-6.6-5.4-12-12-12h-58.4c-6.6,0-12,5.4-12,12v29.5c0,0-63-43.2-63.8-43.7
		c-4-2.8-9.4-2.9-13.6,0L5.2,165.4c-5.5,3.7-6.9,11.2-3.1,16.7c2.3,3.4,6.1,5.2,9.9,5.2c2.3,0,4.7-0.7,6.8-2.1l35.5-24.3v212.4
		c0,6.6,5.4,12,12,12h282.2c6.6,0,12-5.4,12-12V160.9l35.5,24.3c2.1,1.4,4.4,2.1,6.8,2.1c3.8,0,7.6-1.8,9.9-5.2
		C416.4,176.6,415,169.1,409.6,165.4z M232.3,361.3h-49.8V244.6h49.8V361.3z M336.5,361.3h-80.2V232.6c0-6.6-5.4-12-12-12h-73.8
		c-6.6,0-12,5.4-12,12v128.7H78.3V144.5l129.1-88.4l129.1,88.4L336.5,361.3L336.5,361.3z M336.5,115.4l-34.4-23.6V57.9h34.4V115.4z"
		/>
</g>
</svg>
